<svg width="25" height="25" viewBox="0 0 25 25" fill="none" xmlns="http://www.w3.org/2000/svg">
<path d="M15.3618 23.073H15.2318C10.7918 23.073 8.65184 21.323 8.28184 17.403C8.24184 16.993 8.54184 16.623 8.96184 16.583C9.36184 16.543 9.74184 16.853 9.78184 17.263C10.0718 20.403 11.5518 21.573 15.2418 21.573H15.3718C19.4418 21.573 20.8818 20.133 20.8818 16.063V9.54296C20.8818 5.47296 19.4418 4.03296 15.3718 4.03296H15.2418C11.5318 4.03296 10.0518 5.22296 9.78184 8.42296C9.73184 8.83296 9.38184 9.14296 8.96184 9.10296C8.54184 9.07296 8.24184 8.70296 8.27184 8.29296C8.61184 4.31296 10.7618 2.53296 15.2318 2.53296H15.3618C20.2718 2.53296 22.3718 4.63296 22.3718 9.54296V16.063C22.3718 20.973 20.2718 23.073 15.3618 23.073Z" fill="#FF4949"/>
<path d="M15.1219 13.553H3.74194C3.33194 13.553 2.99194 13.213 2.99194 12.803C2.99194 12.393 3.33194 12.053 3.74194 12.053H15.1219C15.5319 12.053 15.8719 12.393 15.8719 12.803C15.8719 13.213 15.5319 13.553 15.1219 13.553Z" fill="#FF4949"/>
<path d="M5.97177 16.9031C5.78177 16.9031 5.59177 16.8331 5.44177 16.6831L2.09177 13.3331C1.80177 13.0431 1.80177 12.5631 2.09177 12.2731L5.44177 8.92307C5.73177 8.63307 6.21177 8.63307 6.50177 8.92307C6.79177 9.21307 6.79177 9.69307 6.50177 9.98307L3.68177 12.8031L6.50177 15.6231C6.79177 15.9131 6.79177 16.3931 6.50177 16.6831C6.36177 16.8331 6.16177 16.9031 5.97177 16.9031Z" fill="#FF4949"/>
</svg>
